<?xml version="1.0" standalone="no"?>
<!DOCTYPE svg PUBLIC "-//W3C//DTD SVG 20010904//EN"
 "http://www.w3.org/TR/2001/REC-SVG-20010904/DTD/svg10.dtd">
<svg version="1.0" xmlns="http://www.w3.org/2000/svg"
 width="149.000000pt" height="121.000000pt" viewBox="0 0 149.000000 121.000000"
 preserveAspectRatio="xMidYMid meet">

<g transform="translate(0.000000,121.000000) scale(0.100000,-0.100000)"
fill="#000000" stroke="none">
<path d="M730 1123 c0 -31 24 -47 49 -33 26 13 27 20 2 13 -12 -3 -24 3 -35
18 -16 23 -16 23 -16 2z"/>
<path d="M750 1048 c-1 -18 -36 -49 -150 -133 l-149 -110 -1 -47 0 -48 -85 0
-85 0 0 -30 c0 -26 -4 -30 -28 -30 l-28 0 -50 -217 -50 -218 55 -17 c31 -9
146 -40 256 -68 126 -33 215 -62 240 -78 53 -34 112 -35 156 -3 23 17 110 45
292 92 143 38 262 71 264 73 3 3 -17 101 -44 218 -48 209 -49 213 -75 216 -21
2 -28 9 -30 30 -3 27 -4 27 -85 30 l-82 3 -3 47 -3 46 -147 111 c-111 83 -147
115 -147 133 -1 12 -5 22 -11 22 -5 0 -10 -10 -10 -22z m146 -170 c131 -99
135 -103 132 -136 -3 -32 -6 -35 -60 -52 -31 -9 -77 -29 -103 -44 l-47 -26 4
38 c3 20 8 45 12 55 6 12 4 17 -9 17 -14 0 -16 5 -10 23 17 49 9 87 -24 120
l-32 32 -35 -38 c-37 -39 -41 -69 -19 -119 5 -13 3 -18 -9 -18 -18 0 -22 -25
-6 -35 6 -3 10 -21 10 -40 l0 -34 -57 29 c-32 16 -79 35 -105 42 -47 11 -48
13 -48 50 0 37 3 40 133 138 72 55 134 100 135 100 2 0 64 -46 138 -102z
m-365 -224 c76 -23 124 -49 175 -96 l44 -41 0 -183 0 -184 -54 44 c-99 80
-228 126 -358 126 -81 0 -77 -17 -43 196 14 85 25 158 25 161 0 10 155 -7 211
-23z m669 14 c0 -7 11 -84 25 -171 14 -87 25 -163 25 -168 0 -5 -31 -9 -68 -9
-133 0 -275 -52 -368 -133 l-44 -39 0 184 0 184 43 41 c23 22 65 52 92 66 43
21 73 30 180 51 48 9 115 6 115 -6z m-935 -85 c-15 -83 -45 -285 -45 -303 0
-11 7 -20 16 -20 8 0 13 4 10 9 -10 15 100 23 165 11 117 -21 272 -103 313
-164 23 -37 41 -33 94 22 88 90 280 162 396 148 28 -3 52 -10 54 -16 4 -11 32
-14 32 -2 0 4 -11 81 -25 172 -21 144 -24 185 -12 169 2 -2 22 -86 44 -186 35
-160 38 -183 24 -187 -9 -2 -122 -30 -251 -62 -198 -48 -240 -62 -268 -86 -41
-35 -63 -35 -104 0 -28 24 -73 39 -286 92 -211 52 -252 65 -248 79 3 9 22 91
43 184 20 92 41 167 45 167 4 0 5 -12 3 -27z"/>
<path d="M265 255 c32 -11 305 -85 312 -84 30 2 -277 90 -309 88 -7 0 -8 -2
-3 -4z"/>
<path d="M1228 253 c6 -2 18 -2 25 0 6 3 1 5 -13 5 -14 0 -19 -2 -12 -5z"/>
<path d="M1060 215 c-116 -34 -173 -54 -155 -54 6 0 78 20 160 44 83 24 141
44 130 44 -11 0 -72 -15 -135 -34z"/>
</g>
</svg>
